<svg width="341" height="300" viewBox="0 0 341 300" fill="none" xmlns="http://www.w3.org/2000/svg">
<!-- <path d="M171.56 143.79C191.199 143.79 207.12 127.869 207.12 108.23C207.12 88.5908 191.199 72.67 171.56 72.67C151.921 72.67 136 88.5908 136 108.23C136 127.869 151.921 143.79 171.56 143.79Z" fill="white"/> -->
<path d="M131.273 88.9173C135.722 81.2121 111.745 59.0404 77.7191 39.3956C43.6934 19.7508 12.5036 10.0721 8.05499 17.7773C3.60634 25.4826 27.5833 47.6542 61.609 67.299C95.6348 86.9438 126.824 96.6226 131.273 88.9173Z" fill="#FE6902"/>
<path d="M278.491 63.4733C312.517 43.8286 336.494 21.657 332.045 13.9517C327.596 6.24637 296.407 15.9252 262.381 35.57C228.355 55.2148 204.378 77.3864 208.827 85.0917C213.276 92.797 244.465 83.1181 278.491 63.4733Z" fill="#FE6902"/>
<path d="M171.23 299.381C180.128 299.381 187.34 267.531 187.34 228.241C187.34 188.952 180.128 157.101 171.23 157.101C162.333 157.101 155.12 188.952 155.12 228.241C155.12 267.531 162.333 299.381 171.23 299.381Z" fill="#FE6902"/>
</svg>
