<svg xmlns="http://www.w3.org/2000/svg" viewBox="0 0 1697.8 530.18">
	<defs>
		<style>
			.color-primary {
				fill: #FE6902;
			}

			.color-secondary {
				fill: #028AD6;
			}

			.color-black {
				fill: #000000;
			}
		</style>
	</defs>

	<g>
		<g>
			<path class="color-black" d="M758.38,414.85c-.17-15.4-6.57-26.8-19.14-34.19-5.72-3.37-11.4-5.76-17.04-7.16-13.46-3.33-28.15-4.97-44.07-4.91-47.53.17-85.06.19-112.55.04-.83,0-1.25-.4-1.27-1.21-.35-9.76-.4-21.74-.15-35.91.1-5.45-2.52-8.61-7.84-9.49-8.93-1.48-16.21-1.17-21.81.92-5.08,1.89-4.49,6.99-4.49,11.99,0,27.92-.08,73.49-.23,136.69-.04,18.42,1.37,32.04,16.73,43.05,5.1,3.68,9.41,6.06,12.94,7.16,16.15,5.06,32.09,7.57,47.82,7.51,47.86-.19,72.41-.27,73.62-.25,18,.31,34.52-2.37,49.52-8.05,19.46-7.35,29.03-21.56,28.73-42.64-.04-2.64-.29-23.82-.77-63.55ZM704.32,499.16c-7.37,1.89-15.13,2.89-23.31,2.98-16.92.21-40.97.21-72.16.02-12.32-.08-25.8-1.64-36.31-8.3-5.95-3.77-8.88-9.36-8.76-16.77.3-20.97.41-52.79.31-81.94,26.27-.06,68.69-.05,113.47.04,11.72.02,20.41,1.02,30.34,4.22,4.79,1.56,12.4,6.41,15.54,11.4.79,1.25,1.17,3.25,1.16,5.97-.02,19.23.04,40.57.19,64,.06,9.41-12.61,16.38-20.47,18.39Z" />
			<path class="color-black" d="M1210.25,339.48c.03,8.12-6.53,14.73-14.66,14.76l-14.25.05c-8.12.03-14.73-6.53-14.76-14.66v-3.58c-.04-8.12,6.52-14.73,14.65-14.76l14.25-.05c8.12-.03,14.73,6.53,14.76,14.66v3.58h.01Z" />
			<path class="color-black" d="M105.43,448.99c17.96.64,36.25.94,54.91.92,17.67-.04,28.9-.29,33.67-.77,11.34-1.12,22.37-3.62,33.1-7.51,12.75-4.6,24.47-12.11,29.63-24.93,1.77-4.43,2.68-11.92,2.7-22.49,0-.12,0-8.32-.02-24.62,0-13.3-5.72-23.78-17.17-31.4-20.58-13.73-46.21-16.17-70.54-16.08-18.06.08-70.6.08-157.62,0-3.14,0-11.05.44-12.73,4.43-.81,1.91-1.21,3.75-1.21,5.53-.17,93.34-.17,155.91-.02,187.69.02,5.51,2.75,8.68,8.2,9.51,7.45,1.16,16.85,1.66,24.09-1.31,3.62-1.48,4.37-4.54,4.37-8.2,0-26.99.04-48.77.13-65.31,0-1.17.54-1.52,1.62-1.04,20.81,9.18,75.74,32.96,164.78,71.37,6.72,2.91,12.15,4.52,16.27,4.85,5.91.46,11.71.46,17.35-.02,6.45-.52,10.84-3.18,11.46-9.9.87-9.41-4.45-11.46-11.4-14.88-2.1-1.04-4.25-1.98-6.45-2.85-53.77-21.2-85.14-33.54-94.13-37.04-9.53-3.72-18.31-6.87-26.32-9.51-2.98-.98-5.02-2.02-6.12-3.16-2.23-2.31-1.75-3.41,1.46-3.29ZM36.81,421.38v-69.96h153.46c18.02,0,32.63,8.86,32.63,19.77v30.42c0,10.92-14.61,19.77-32.63,19.77H36.81Z" />
			<path class="color-black" d="M1150.93,391.49c-.75,2.56-2.43,3.81-5.01,3.79-15.54-.15-41.12-.21-65-.17-.17,65.73-.23,114.19-.19,125.1.04,5.68-3.1,8.82-9.4,9.4-6.39.58-12.19.54-17.4-.12-5.16-.67-7.72-3.54-7.68-8.63,0-.19.04-45.94.1-125.72h-21.58c-2.31,0-4.25-1.66-4.68-3.93-.85-4.87-.98-10.55-.37-17.04.17-1.85.77-3.16,1.83-3.95,1.29-.96,2.77-1.48,4.51-1.56,3.95-.19,13.05-.44,20.1-.42.08-13.25.15-29.67.27-38.97.08-6.49,4.97-7.01,10.53-7.62,4.87-.54,9.68-.5,14.44.1,8.36,1.06,9.32,4.93,9.43,12.63.04,5.08.02,20-.08,34.4,16.21-.12,41.74-.17,63.19-.21,2.21,0,4.16.52,5.85,1.56.54.35.9.83,1.12,1.44,2.02,6.35,2.02,13,.02,19.91Z" />
			<path class="color-black" d="M391.98,368.64c12.21,0,24.35,0,36.45-.02,10.15,0,20.39,1.04,30.73,3.12,12.49,2.54,21.99,6.24,28.47,11.05,10.59,7.89,16.23,19.58,16.94,35.06.1,2.45.15,12.76.17,30.98-.02,18.21-.06,28.53-.17,30.98-.69,15.48-6.33,27.17-16.92,35.06-6.49,4.83-15.98,8.51-28.47,11.05-10.34,2.1-20.58,3.14-30.73,3.14-12.09-.02-24.24-.02-36.45-.02s-24.35,0-36.45.02c-10.15.02-20.39-1.02-30.73-3.12-12.5-2.54-21.99-6.22-28.47-11.05-10.59-7.89-16.23-19.58-16.94-35.06-.1-2.45-.15-12.76-.17-30.98.02-18.21.06-28.53.17-30.96.69-15.48,6.33-27.17,16.92-35.08,6.49-4.81,15.98-8.51,28.47-11.05,10.34-2.1,20.58-3.14,30.73-3.12h36.45M314.57,448.62c-.02,20-.02,30.25.02,30.73.44,7.22,3.79,12.44,10.05,15.69,7.97,4.12,17.06,6.43,27.26,6.95,3.5.17,16.85.25,40.05.27,23.2.02,36.54-.06,40.05-.21,10.2-.5,19.31-2.81,27.28-6.91,6.26-3.23,9.61-8.47,10.07-15.67.04-.5.06-10.74.08-30.73.02-20,0-30.25-.04-30.73-.44-7.22-3.79-12.46-10.05-15.69-7.97-4.12-17.06-6.45-27.26-6.95-3.5-.17-16.85-.27-40.05-.29-23.2-.02-36.54.06-40.05.23-10.2.5-19.29,2.79-27.28,6.91-6.24,3.23-9.61,8.45-10.07,15.67-.04.48-.06,10.72-.06,30.73h0Z" />
			<path class="color-black" d="M1605.67,373.15c1.48,6.05,1.25,12.24-.69,18.62-.89,2.87-2.83,3.64-5.64,3.58-10.22-.21-25.47-.27-45.78-.19-7.14.02-13.38,1.1-18.71,3.23-9.57,3.79-12.23,9.28-10.99,19.41.83,6.72,4.62,11.09,11.4,13.11,6.68,1.98,14.27,3,22.74,3.06,40.41.19,63.73.33,69.94.42,16.58.27,32.15,2.16,46.61,8.18,10.88,4.51,18.69,12.73,21.95,23.93.9,3.1,1.33,7.55,1.31,13.36-.04,10.28-.08,19.52-6.57,27.38-5.72,6.93-12.4,11.65-20.02,14.17-15.31,5.04-31.42,7.59-48.34,7.6-53.02.08-93.95.1-122.77.06-1.68,0-3.14-.09-4.38-.27-2.46-.35-4.33-2.37-4.68-4.83-.97-6.86-.87-12.93.31-18.22.52-2.33,2.16-3.5,4.93-3.5,72.51.02,117.6-.02,135.25-.08,5.26-.02,11.78-1.12,19.58-3.27,5.99-1.66,9.59-4.29,10.84-7.91,1.06-3.08,1.48-7.14,1.25-12.17-.75-16.92-18.5-17.9-32.63-17.98-10.34-.06-33.9-.13-70.7-.21-5.8-.02-11.82-.39-18.1-1.14-8.22-.98-14.15-1.91-17.83-2.81-14.92-3.68-30.28-13.09-33.33-29.26-.48-2.6-.79-6.89-.89-12.86-.1-5.91.19-10.2.87-12.9,6.55-26.05,34.75-32.19,58.76-32.73,16.38-.39,33.19-.46,50.42-.23,1.37.02,2.7.46,3.95,1.35.96.69,1.62,1.73,1.94,3.1h0Z" />
			<path class="color-black" d="M1266.82,419.18c0,37.91.02,58.62.06,62.13.12,10.2,15.88,17.06,24.84,18.81,8.2,1.6,16.06,2.37,23.58,2.35,94.49-.29,142.35-.44,143.57-.46,5.16-.02,8.22,2.41,9.2,7.28.94,4.64.83,11.34-.56,15.17-1.83,5.04-6.28,4.54-11.19,4.56-51.37.1-99.98.1-145.82-.02-15.9-.04-30.25-1.69-43.26-5.51-14.92-4.37-28.57-14.13-33.02-29.82-.77-2.71-1.19-8.12-1.27-16.23-.21-26.92-.19-48.09.08-63.51.64-38,44.15-44.9,74.08-45.05,6.99-.04,56.26-.13,147.76-.31,4.02,0,10.65-.44,11.94,4.99,1.73,7.14,1.29,13.55-1.35,19.19-.81,1.71-2.41,2.58-4.79,2.56-90.47-.15-141.01-.25-151.61-.31-13.19-.06-31.82,3.68-40.2,14.98-1.37,1.85-2.04,4.91-2.04,9.2h0Z" />
			<path class="color-black" d="M1205.93,520.55c0,5.24-4.25,9.49-9.49,9.49h-16.13c-5.24,0-9.49-4.25-9.49-9.49v-141.28c0-5.24,4.25-9.49,9.49-9.49h16.13c5.24,0,9.49,4.25,9.49,9.49v141.28h0Z" />
			<path class="color-black" d="M1007.18,417.86c-.71-15.48-6.35-27.17-16.94-35.06-6.49-4.82-15.98-8.51-28.48-11.05-10.34-2.08-20.58-3.12-30.72-3.12-12.09.02-24.24.02-36.45.02h-36.44c-10.15-.02-20.39,1.02-30.73,3.12-12.5,2.54-21.99,6.23-28.48,11.05-10.59,7.91-16.23,19.6-16.92,35.08-.12,2.42-.15,12.74-.17,30.95.02,18.22.07,28.54.17,30.98.71,15.48,6.35,27.17,16.94,35.06,6.49,4.83,15.98,8.51,28.48,11.05,10.34,2.1,20.58,3.14,30.72,3.12,12.1-.02,24.24-.02,36.45-.02s24.35,0,36.45.02c10.14,0,20.38-1.04,30.72-3.14,12.5-2.54,21.99-6.22,28.48-11.05,10.59-7.89,16.23-19.58,16.92-35.06.12-2.44.15-12.76.17-30.98-.02-18.21-.07-28.53-.17-30.97ZM827.24,495.04c-6.25-3.25-9.6-8.47-10.04-15.69-.04-.48-.04-10.72-.02-30.73,0-20,.02-30.24.05-30.72.47-7.22,3.83-12.44,10.07-15.68,7.99-4.12,17.08-6.41,27.28-6.91,3.12-.15,14.01-.23,32.67-.23h7.38c23.2.02,36.54.12,40.04.29,10.21.5,19.3,2.83,27.27,6.95,6.25,3.23,9.6,8.47,10.05,15.69.03.48.05,10.72.03,30.73-.01,19.98-.03,30.22-.07,30.73-.46,7.2-3.81,12.43-10.07,15.67-7.97,4.1-17.08,6.41-27.28,6.91-3.51.15-16.85.23-40.05.21-23.2-.02-36.54-.1-40.04-.27-5.23-.27-10.16-1-14.8-2.21-4.42-1.15-8.58-2.73-12.47-4.74Z" />
			<path class="color-black" d="M929.44,451.3c0,13.65-11.07,24.72-24.72,24.72-3.92,0-7.63-.91-10.92-2.54-8.18-4.03-13.81-12.45-13.81-22.18,0-12.76,9.66-23.26,22.06-24.58.88-.1,1.77-.15,2.67-.15,13.65,0,24.72,11.07,24.72,24.73Z" />
			<path class="color-black" d="M390.9,126.58c.02.31-.25.58-.56.56-7.39-.52-17.29-.77-29.67-.71-8.11.04-16.71,1.17-25.86,3.39-8.64,2.1-16.88,5.12-24.72,9.07-1.16.58-1.89,1.75-1.91,3.06-.1,38.99-.02,92.91.27,136.5-21.39-.33-46.09-.31-63.78.08-.13,0-.27,0-.37-.04v-5.53c0-82.84-.02-145.26.08-187.25.02-5.85-.55-9.02-.67-13.65h57.24c.62,0,1.14.48,1.17,1.1.75,10.28,1.37,17.5,1.81,21.64.17,1.62,1.06,2.25,2.66,1.91.29-.06.58-.19.83-.4,17.94-14.42,35.93-25.03,58.82-27.65,6.22-.71,14.3-1.04,24.3-1.02.23.02.42.21.4.44-.65,20.27-.67,39.78-.04,58.51Z" />
			<path class="color-black" d="M210.31,227.04c-1.54,11.24-4.78,20.7-9.71,28.38-11.8,18.4-32.57,24.87-53.77,25.16-10.74.14-23.66.21-38.79.21h-.64c-12.88-.01-30.15-.71-46.84-1.59-.02-.02-.04-.02-.06,0-25.08-1.35-48.84-3.1-54.37-3.51-.77-.06-1.19-.09-1.19-.09-1.21-.09-3.27-.25-4.68-.36v-48.83h.64s.06-.02.09-.02h1.29c32.89.11,70.68.13,113.34.05,7.78-.02,12.42-.21,13.94-.57,4.72-1.16,8.8-3.82,12.25-7.99,1.83-2.24,2.83-4.6,3-7.09.5-7.64.5-15.52,0-23.62-.25-4.14-1.17-7.61-3.7-10.76-4.33-5.45-11.14-8.21-20.44-8.22-31.56-.1-59.69-.02-78.28.19v-53.66c22.37.5,45.72.58,67.32.25,8.19-.13,13.69-.87,16.52-2.21,11.52-5.47,12.07-21.84,11.07-33.25-.77-8.76-4.64-15.27-11.59-19.49-2.9-1.77-7.39-2.56-13.42-2.36-3.87.11-52.88.17-107.89.15.08-15.75,0-40.51-.27-52.81,20.56.04,67.44.06,121.85.08,17.16,0,35.81,1.31,49.77,8.97,13.61,7.49,22.14,19.83,25.59,37.06,3.6,18.08,3.58,38.95-4.14,55.58-5.3,11.46-14.4,19.41-27.32,23.9-.66.23-1.04.69-1.14,1.38-.38,2.6.52,4.24,2.74,4.95,12.8,4.04,22.56,11.92,29.26,23.6,6.58,11.48,10.11,23.47,10.57,36.01.46,12.12.13,22.29-1,30.51Z" />
			<path class="color-secondary" d="M972.02,448.74c-.01,19.98-.03,30.22-.07,30.73-.46,7.2-3.81,12.43-10.07,15.67-7.97,4.1-17.08,6.41-27.28,6.91-3.51.15-16.85.23-40.05.21-23.2-.02-36.54-.1-40.04-.27-5.23-.27-10.16-1-14.8-2.21-.82-2.53-1.78-5.47-2.9-8.89,20-3.18,48.09-13.89,56.99-17.41,3.29,1.63,7,2.54,10.92,2.54,13.65,0,24.72-11.07,24.72-24.72s-11.07-24.73-24.72-24.73c-.9,0-1.79.05-2.67.15l-12.64-18.09-2.16-13.55h7.38c23.2.02,36.54.12,40.04.29,10.21.5,19.3,2.83,27.27,6.95,6.25,3.23,9.6,8.47,10.05,15.69.03.48.05,10.72.03,30.73Z" />
			
			<g>
				<rect class="color-primary" x="634.73" y="0" width="332.86" height="69.75" rx="34.88" ry="34.88" />
				<rect class="color-primary" x="634.73" y="104.63" width="332.86" height="69.75" rx="34.88" ry="34.88" />
				<rect class="color-primary" x="634.73" y="209.25" width="332.86" height="69.75" rx="34.88" ry="34.88" />
				<rect class="color-primary" x="1344.31" y="0" width="332.86" height="69.75" rx="34.88" ry="34.88" />
				<rect class="color-primary" x="1344.31" y="104.63" width="332.86" height="69.75" rx="34.88" ry="34.88" />
				<rect class="color-primary" x="1344.31" y="209.25" width="332.86" height="69.75" rx="34.88" ry="34.88" />

				<circle class="color-black" cx="1158.01" cy="108.23" r="35.56" />

				<g>
					<ellipse class="color-primary" cx="1056.44" cy="50.28" rx="16.11" ry="71.14" transform="translate(484.68 940.05) rotate(-60)" />
					<ellipse class="color-primary" cx="1257.21" cy="46.46" rx="71.14" ry="16.11" transform="translate(145.21 634.83) rotate(-30)" />
					<ellipse class="color-primary" cx="1158.01" cy="225.18" rx="16.11" ry="71.14" />
				</g>
			</g>

			<path class="color-black" d="M612.42,4.52h-65.25v67.44h-65.46c-17.29-.06-29.67,1.1-37.12,3.47-16.96,5.37-28.3,17.44-33.98,36.21-1.98,6.55-2.23,14.11-2.27,21.06-.1,28.07-.02,60.65.23,97.73.06,10.61,3.04,20.25,8.94,28.94,9.56,14.15,23.56,21.52,41.95,22.12,16.77.56,29.13.17,37.06-1.12,10.51-1.71,22.35-5.7,35.54-11.97,4.39-2.08,10.9-6.55,16.52-8.75,1.21-.46,2.52.2,2.94,1.35l1.89,17.29h58.89v-125.18c.16-7.99.16-15.98,0-23.97l.12-106.79V4.52ZM547.24,218.57l-1.77.6c-18.79,6.13-37.87,8.84-57.23,8.17-6.94-.25-11.59-2.85-13.96-7.84-1.14-2.37-1.68-7.07-1.66-14.09.1-23.82.12-46.09.02-66.87-.04-10.36,5.22-15.59,15.79-15.71,14.77-.15,39.55-.22,58.81-.21v95.95Z" />
		</g>
	</g>
</svg>
