<svg width="1750" height="850" viewBox="0 0 1750 850" fill="none" xmlns="http://www.w3.org/2000/svg">
<g clip-path="url(#clip0_53_470)">
<rect width="1750" height="850" fill="#FAFAFA"/>
<g opacity="0.035" filter="url(#filter0_d_53_470)">
<path d="M320.717 1259.21H488.501L570.126 1125.52L488.501 923.862L282.172 901.203L164.27 1089.27L252.697 1327.19L499.838 1381.57L658.552 1145.92L549.72 858.152L252.697 790.176L53.1702 1050.75L164.27 1392.9L488.501 1490.33L749.246 1204.83L640.413 796.973L282.172 701.807L-26.187 1007.7L66.7742 1449.54L470.362 1601.36L826.336 1277.34L756.048 762.985L316.183 583.982L-91.9401 923.862L-26.187 1474.47L440.887 1719.18L914.763 1381.57L869.416 753.922L361.53 479.752L-141.822 815.1L-128.218 1483.53L409.144 1825.68L980.516 1490.33L987.318 740.327L447.689 382.319L-196.238 695.009L-259.724 1469.94L298.044 1923.11L1019.06 1601.36L1130.16 796.973L508.907 275.824L-216.644 559.057L-388.963 1413.29L216.419 2002.41L1048.54 1748.64L1248.06 871.747L615.473 212.379L-237.05 450.296L-493.261 1356.64L125.725 2102.11L1048.54 1936.7L1379.57 980.509L737.909 173.86L-196.238 327.939L-593.024 1281.87L23.6946 2197.28L1041.73 2102.11L1508.81 1114.19L903.426 137.606L-146.357 173.86L-670.114 1182.17L-101.009 2240.33L996.387 2274.32L1622.18 1236.55L1059.87 103.618L-87.4055 26.5783L-744.936 1021.29L-246.12 2235.8L926.099 2419.33L1699.27 1381.57L1236.73 103.618L39.5661 -134.298L-826.561 862.683L-429.775 2197.28L808.197 2566.62L1767.29 1553.77L1399.98 114.947L127.993 -261.187L-912.72 722.2L-611.163 2165.56L654.017 2695.77L1821.7 1694.26L1560.96 137.606L230.023 -413L-962.602 559.057M-962.602 559.057L-776.679 2102.11L540.65 2800L1862.51 1907.25L1749.15 212.379L685.76 -367.683M-962.602 559.057V1957.1M98.5171 -322.365L-955.329 327.939L-1109.98 1832.47M1.02117 -322.365L-901.384 103.618L-1168.93 1216.16M-271.061 -322.365L-846.967 -129.767L-1178 889.874M-756.273 -322.365L-1178 545.462M-1178 343.8L-765.343 -322.365M-1173.47 169.328L-799.353 -322.365M-1173.47 6.18549L-883.245 -322.365M-1173.47 -129.767L-967.137 -322.365M-1109.98 2743.35L-1173.47 2557.55M-926.324 2743.35L-1173.47 2102.11M-747.204 2743.35L-1173.47 1923.11M-588.489 2743.35L-1173.47 1832.47M-429.775 2743.35L-1173.47 1800.75M-1173.47 1800.75L-246.12 2754.68M-1173.47 1800.75L-53.3952 2754.68M-1173.47 1800.75L171.072 2754.68M1882.92 2768.28L1923.73 2734.29M1787.69 2768.28L1923.73 2607.4M1733.28 2768.28L1923.73 2462.39M1923.73 2326.43L1694.73 2768.28L1923.73 2215.41M1926 -209.072L1837.57 -354.087M1926 -21.0049L1710.6 -354.087M1926 173.86L1488.4 -354.087M1316.08 -354.087L1926 259.963M1155.1 -354.087L1926 275.824M903.426 -367.683L1926 305.28L1862.51 2315.1L694.83 2768.28M1923.73 2083.99L654.017 2768.28M980.516 2768.28L1923.73 2521.3" stroke="black" stroke-width="3"/>
</g>
</g>
<defs>
<filter id="filter0_d_53_470" x="-1200.3" y="-435.598" width="3148.69" height="3258.21" filterUnits="userSpaceOnUse" color-interpolation-filters="sRGB">
<feFlood flood-opacity="0" result="BackgroundImageFix"/>
<feColorMatrix in="SourceAlpha" type="matrix" values="0 0 0 0 0 0 0 0 0 0 0 0 0 0 0 0 0 0 127 0" result="hardAlpha"/>
<feOffset/>
<feGaussianBlur stdDeviation="10.4348"/>
<feColorMatrix type="matrix" values="0 0 0 0 1 0 0 0 0 1 0 0 0 0 1 0 0 0 0.1 0"/>
<feBlend mode="normal" in2="BackgroundImageFix" result="effect1_dropShadow_53_470"/>
<feBlend mode="normal" in="SourceGraphic" in2="effect1_dropShadow_53_470" result="shape"/>
</filter>
<clipPath id="clip0_53_470">
<rect width="1750" height="850" fill="white"/>
</clipPath>
</defs>
</svg>
