<svg width="1750" height="585" viewBox="0 0 1750 585" fill="none" xmlns="http://www.w3.org/2000/svg">
<g opacity="0.035" filter="url(#filter0_d_53_319)">
<path d="M240.717 1171.21H408.501L490.126 1037.52L408.501 835.862L202.172 813.203L84.2703 1001.27L172.697 1239.19L419.838 1293.57L578.552 1057.92L469.72 770.152L172.697 702.176L-26.8298 962.75L84.2703 1304.9L408.501 1402.33L669.246 1116.83L560.413 708.973L202.172 613.807L-106.187 919.699L-13.2258 1361.54L390.362 1513.36L746.336 1189.34L676.048 674.985L236.183 495.982L-171.94 835.862L-106.187 1386.47L360.887 1631.18L834.763 1293.57L789.416 665.922L281.53 391.752L-221.822 727.1L-208.218 1395.53L329.144 1737.68L900.516 1402.33L907.318 652.327L367.689 294.319L-276.238 607.009L-339.724 1381.94L218.044 1835.11L939.061 1513.36L1050.16 708.973L428.907 187.824L-296.644 471.057L-468.963 1325.29L136.419 1914.41L968.536 1660.64L1168.06 783.747L535.473 124.379L-317.05 362.296L-573.261 1268.64L45.7254 2014.11L968.536 1848.7L1299.57 892.509L657.909 85.8597L-276.238 239.939L-673.024 1193.87L-56.3054 2109.28L961.734 2014.11L1428.81 1026.19L823.426 49.6058L-226.357 85.8597L-750.114 1094.17L-181.009 2152.33L916.387 2186.32L1542.18 1148.55L979.873 15.6178L-167.405 -61.4217L-824.936 933.294L-326.12 2147.8L846.099 2331.33L1619.27 1293.57L1156.73 15.6178L-40.4339 -222.298L-906.561 774.683L-509.775 2109.28L728.197 2478.62L1687.29 1465.77L1319.98 26.9471L47.9927 -349.187L-992.72 634.2L-691.163 2077.56L574.017 2607.77L1741.7 1606.26L1480.96 49.6058L150.023 -501L-1042.6 471.057M-1042.6 471.057L-856.679 2014.11L460.65 2712L1782.51 1819.25L1669.15 124.379L605.76 -455.683M-1042.6 471.057V1869.1M18.5171 -410.365L-1035.33 239.939L-1189.98 1744.47M-78.9788 -410.365L-981.384 15.6178L-1248.93 1128.16M-351.061 -410.365L-926.967 -217.767L-1258 801.874M-836.273 -410.365L-1258 457.462M-1258 255.8L-845.343 -410.365M-1253.47 81.3279L-879.353 -410.365M-1253.47 -81.8145L-963.245 -410.365M-1253.47 -217.767L-1047.14 -410.365M-1189.98 2655.35L-1253.47 2469.55M-1006.32 2655.35L-1253.47 2014.11M-827.204 2655.35L-1253.47 1835.11M-668.489 2655.35L-1253.47 1744.47M-509.775 2655.35L-1253.47 1712.75M-1253.47 1712.75L-326.12 2666.68M-1253.47 1712.75L-133.395 2666.68M-1253.47 1712.75L91.0723 2666.68M1802.92 2680.28L1843.73 2646.29M1707.69 2680.28L1843.73 2519.4M1653.28 2680.28L1843.73 2374.39M1843.73 2238.43L1614.73 2680.28L1843.73 2127.41M1846 -297.072L1757.57 -442.087M1846 -109.005L1630.6 -442.087M1846 85.8597L1408.4 -442.087M1236.08 -442.087L1846 171.963M1075.1 -442.087L1846 187.824M823.426 -455.683L1846 217.28L1782.51 2227.1L614.83 2680.28M1843.73 1995.99L574.017 2680.28M900.516 2680.28L1843.73 2433.3" stroke="#FF6902" stroke-width="3"/>
</g>
<defs>
<filter id="filter0_d_53_319" x="-1280.3" y="-523.598" width="3148.69" height="3258.21" filterUnits="userSpaceOnUse" color-interpolation-filters="sRGB">
<feFlood flood-opacity="0" result="BackgroundImageFix"/>
<feColorMatrix in="SourceAlpha" type="matrix" values="0 0 0 0 0 0 0 0 0 0 0 0 0 0 0 0 0 0 127 0" result="hardAlpha"/>
<feOffset/>
<feGaussianBlur stdDeviation="10.4348"/>
<feColorMatrix type="matrix" values="0 0 0 0 1 0 0 0 0 1 0 0 0 0 1 0 0 0 0.1 0"/>
<feBlend mode="normal" in2="BackgroundImageFix" result="effect1_dropShadow_53_319"/>
<feBlend mode="normal" in="SourceGraphic" in2="effect1_dropShadow_53_319" result="shape"/>
</filter>
</defs>
</svg>
